<svg width="20.000000" height="20.674561" viewBox="0 0 20 20.6746" fill="none" xmlns="http://www.w3.org/2000/svg" xmlns:xlink="http://www.w3.org/1999/xlink">
	<desc>
			Created with Pixso.
	</desc>
	<defs/>
	<path id="icon" d="M2 0L18 0C19.1001 0 20 0.93042 20 2.06738L20 13.4385C20 14.5757 19.1001 15.5059 18 15.5059L4 15.5059L0 20.6746L0.0100098 2.06738C0.0100098 0.93042 0.899902 0 2 0ZM5 6.20288L15 6.20288C15.55 6.20288 16 5.73779 16 5.16919C16 4.60083 15.55 4.1355 15 4.1355L5 4.1355C4.44995 4.1355 4 4.60083 4 5.16919C4 5.73779 4.44995 6.20288 5 6.20288ZM11 11.3716L5 11.3716C4.44995 11.3716 4 10.9065 4 10.3379C4 9.76929 4.44995 9.3042 5 9.3042L11 9.3042C11.55 9.3042 12 9.76929 12 10.3379C12 10.9065 11.55 11.3716 11 11.3716Z" clip-rule="evenodd" fill="#4186C7" fill-opacity="1.000000" fill-rule="evenodd"/>
</svg>
